<svg width="162" height="41" viewBox="0 0 162 41" fill="none" xmlns="http://www.w3.org/2000/svg">
<path d="M23.0781 3.34375L20.1719 6.25L14.8906 16.1719V23.0938L17.7969 26H5.95312L8.875 23.0938V16.1094L3.14062 6.28125L0.203125 3.34375H13L10.125 6.21875L13.6406 12.75L17 6.21875L14.125 3.34375H23.0781ZM41.4375 26L32.6562 26.0156V22.7188L31.2812 24.0938C29.6875 25.6562 28.1094 26.4375 26.5469 26.4375C25.875 26.4375 25.2812 26.3125 24.7656 26.0625C24.25 25.8125 23.8594 25.4844 23.5781 25.0781C23.2969 24.6719 23.0938 24.25 22.9531 23.8281C22.8125 23.4062 22.75 22.9844 22.75 22.5625V14.875L20.0625 12.1875L28.7656 9.34375V21.125C28.7656 21.4844 28.8594 21.7656 29.0469 21.9844C29.2344 22.2031 29.4844 22.3125 29.7812 22.3125C30.2188 22.3125 30.7656 21.9844 31.4219 21.3281L32.6719 20.0781V14.8594L29.9844 12.1719L38.6875 9.32812V23.25L41.4375 26ZM53.25 18.0625H43.0781V14.7969H53.25V18.0625ZM79.2188 13.2656L76.2969 16.25V24.9219C74.8281 25.5312 73.5312 25.9531 72.3906 26.2031C71.25 26.4531 69.8906 26.5781 68.3125 26.5781C66.7812 26.5781 65.2656 26.2812 63.7656 25.6875C62.2656 25.0938 60.9375 24.2812 59.7656 23.25C58.5938 22.2188 57.6562 20.9531 56.9375 19.4688C56.2188 17.9844 55.8594 16.4219 55.8594 14.7812C55.8594 13.0781 56.2188 11.4688 56.9375 9.96875C57.6562 8.46875 58.6094 7.21875 59.7812 6.20312C60.9531 5.1875 62.2812 4.39062 63.7656 3.8125C65.25 3.23438 66.7656 2.9375 68.2969 2.9375C69.6875 2.9375 70.9062 3.0625 71.9375 3.29688C72.9688 3.53125 74.0938 3.95312 75.3125 4.5625V11.2188L71.2344 7.15625C70.7344 6.65625 70.2656 6.29688 69.8438 6.07812C69.4219 5.85938 68.9062 5.75 68.2969 5.75C67.4531 5.75 66.7031 5.92188 66.0469 6.28125C65.3906 6.64062 64.8594 7.10938 64.4531 7.6875C64.0469 8.26562 63.7031 8.95312 63.4375 9.75C63.1719 10.5469 62.9844 11.3438 62.875 12.1562C62.7656 12.9688 62.7188 13.8125 62.7188 14.7031C62.7188 15.4844 62.75 16.1875 62.7969 16.8281C62.8438 17.4688 62.9375 18.1562 63.0625 18.875C63.1875 19.5938 63.3906 20.2188 63.6562 20.7656C63.9219 21.3125 64.25 21.8125 64.6562 22.2656C65.0625 22.7188 65.5781 23.0625 66.2031 23.2969C66.8281 23.5312 67.5469 23.6562 68.3438 23.6562C68.9219 23.6562 69.5781 23.4375 70.2969 22.9844V16.1719L67.3906 13.2656H79.2188ZM87.9219 5.23438C87.9219 6.0625 87.625 6.76562 87.0312 7.35938C86.4375 7.95312 85.7344 8.25 84.9062 8.25C84.0781 8.25 83.375 7.95312 82.7812 7.35938C82.1875 6.76562 81.8906 6.0625 81.8906 5.23438C81.8906 4.40625 82.1875 3.70312 82.7812 3.10938C83.375 2.51562 84.0781 2.21875 84.9062 2.21875C85.7344 2.21875 86.4375 2.51562 87.0312 3.10938C87.625 3.70312 87.9219 4.40625 87.9219 5.23438ZM90.8438 26H79.3125L82.0781 23.25V14.8594L79.3906 12.1719L88.0938 9.32812V23.25L90.8438 26ZM102.781 18.0625H92.6094V14.7969H102.781V18.0625ZM127.438 14.6719L127.422 14.7031C127.422 16.2812 127.141 17.7969 126.578 19.25C126.016 20.7031 125.266 21.9688 124.312 23.0625C123.359 24.1562 122.188 25.0312 120.812 25.6875C119.438 26.3438 117.969 26.6719 116.422 26.6719C114.875 26.6719 113.406 26.3438 112.031 25.6875C110.656 25.0312 109.484 24.1562 108.531 23.0625C107.578 21.9688 106.828 20.6875 106.266 19.2344C105.703 17.7812 105.422 16.2656 105.422 14.6875C105.422 13.1094 105.703 11.5938 106.266 10.1406C106.828 8.6875 107.594 7.40625 108.547 6.3125C109.5 5.21875 110.672 4.34375 112.047 3.6875C113.422 3.03125 114.891 2.70312 116.438 2.70312C117.984 2.70312 119.453 3.03125 120.828 3.6875C122.203 4.34375 123.375 5.21875 124.328 6.3125C125.281 7.40625 126.031 8.67188 126.594 10.125C127.156 11.5781 127.438 13.0938 127.438 14.6719ZM120.609 14.7031L120.578 14.7344C120.578 14.0938 120.562 13.5 120.547 12.9688C120.531 12.4375 120.484 11.8438 120.422 11.1875C120.359 10.5312 120.266 9.95312 120.141 9.45312C120.016 8.95312 119.844 8.45312 119.625 7.95312C119.406 7.45312 119.156 7.03125 118.875 6.70312C118.594 6.375 118.234 6.10938 117.812 5.90625C117.391 5.70312 116.922 5.59375 116.391 5.59375C115.859 5.59375 115.391 5.6875 114.969 5.89062C114.547 6.09375 114.188 6.35938 113.906 6.6875C113.625 7.01562 113.375 7.4375 113.156 7.9375C112.938 8.4375 112.766 8.9375 112.641 9.4375C112.516 9.9375 112.422 10.5156 112.359 11.1719C112.297 11.8281 112.25 12.4219 112.234 12.9531C112.219 13.4844 112.203 14.0781 112.203 14.7188C112.203 15.3594 112.219 15.9531 112.234 16.4844C112.25 17.0156 112.297 17.6094 112.359 18.2656C112.422 18.9219 112.516 19.5 112.641 20C112.766 20.5 112.938 21 113.156 21.5C113.375 22 113.625 22.4219 113.906 22.75C114.188 23.0781 114.547 23.3438 114.969 23.5469C115.391 23.75 115.875 23.8438 116.406 23.8438C116.938 23.8438 117.422 23.7344 117.844 23.5312C118.266 23.3281 118.625 23.0625 118.906 22.7344C119.188 22.4062 119.438 21.9844 119.656 21.4844C119.875 20.9844 120.047 20.4844 120.172 19.9844C120.297 19.4844 120.391 18.9062 120.453 18.25C120.516 17.5938 120.562 17 120.578 16.4688C120.594 15.9375 120.609 15.3438 120.609 14.7031ZM150.047 26L141.25 25.9688V14.4219C141.25 14.0938 141.156 13.8125 140.969 13.5781C140.781 13.3438 140.531 13.2188 140.219 13.2188C139.781 13.2188 139.234 13.5469 138.578 14.2031L137.078 15.7188V23.2344L139.828 25.9844H128.312L131.062 23.2344V7.04688L128.375 4.35938L137.078 1.67188V13.0938L138.453 11.7188C140.062 10.1094 141.703 9.3125 143.375 9.3125C144.375 9.3125 145.281 9.65625 146.078 10.3438C146.875 11.0312 147.281 11.9531 147.281 13.1094V23.25L150.047 26ZM159.156 3.34375L158.031 17.9375H153.625L152.5 3.34375H159.156ZM158.859 23.2812H158.812C158.812 24.1094 158.516 24.8281 157.922 25.4219C157.328 26.0156 156.625 26.3125 155.797 26.3125C154.969 26.3125 154.25 26.0156 153.656 25.4219C153.062 24.8281 152.766 24.1094 152.766 23.2812C152.766 22.4531 153.062 21.7344 153.672 21.1406C154.281 20.5469 155 20.25 155.828 20.25C156.656 20.25 157.375 20.5469 157.969 21.1406C158.562 21.7344 158.859 22.4531 158.859 23.2812Z" fill="black"/>
<path d="M8.772 33.896H5.988V32.396H13.44V33.896H10.644V41H8.772V33.896ZM19.945 34.676H22.753C24.073 34.676 24.529 35.096 24.529 36.272V37.328H22.933V36.512C22.933 35.948 22.741 35.888 22.201 35.888H21.613V41H19.945V34.676ZM32.5637 34.676H35.9837C37.7117 34.676 38.5877 35.48 38.5877 37.04V41H34.0997C32.8397 41 32.1437 40.34 32.1437 39.176C32.1437 37.712 32.8997 37.16 34.6637 37.16H36.8597V37.004C36.8597 36.2 36.4037 35.984 35.3477 35.984H32.5637V34.676ZM34.7837 39.728H36.8717V38.42H34.9037C34.1957 38.42 33.8717 38.564 33.8717 39.128C33.8717 39.656 34.1717 39.728 34.7837 39.728ZM52.7549 41H49.5509C47.5829 41 46.4669 39.776 46.4669 37.76C46.4669 36.92 46.6949 36.224 47.1509 35.648C47.7509 34.892 48.5189 34.676 49.6589 34.676H51.0869V32.384H52.7549V41ZM51.0869 39.644V36.044H50.0789C48.7829 36.044 48.2189 36.512 48.2189 37.88C48.2189 39.2 48.7109 39.644 49.9469 39.644H51.0869ZM63.8814 41C61.7814 41 60.7014 39.92 60.7014 37.844C60.7014 35.78 61.7814 34.676 63.8814 34.676H66.3174V35.996H64.1094C63.0414 35.996 62.5854 36.176 62.5494 37.184H66.3174V38.504H62.5494C62.5854 39.548 63.0174 39.68 64.0974 39.68H66.3174V41H63.8814ZM89.4502 33.86C87.9262 33.86 87.3382 34.784 87.3382 36.92C87.3382 38.852 87.9262 39.5 89.4502 39.5H92.4262V41H89.3662C88.3222 41 87.5182 40.916 86.6782 40.244C85.7902 39.536 85.3582 38.408 85.3582 36.848C85.3582 33.8 86.6422 32.384 89.4142 32.384H92.4262V33.86H89.4502ZM103.263 41C101.163 41 100.083 39.92 100.083 37.844C100.083 35.78 101.163 34.676 103.263 34.676H105.699V35.996H103.491C102.423 35.996 101.967 36.176 101.931 37.184H105.699V38.504H101.931C101.967 39.548 102.399 39.68 103.479 39.68H105.699V41H103.263ZM113.622 34.676H116.766C118.638 34.676 119.406 35.312 119.406 36.992V41H117.738V37.196C117.738 36.32 117.582 36.068 116.634 36.068H115.29V41H113.622V34.676ZM127.043 34.676H128.219V32.384H129.887V34.676H131.651V35.936H129.887V38.492C129.887 39.368 130.115 39.74 130.967 39.74H131.651V41H130.127C128.915 41 128.219 40.316 128.219 39.02V35.936H127.043V34.676ZM142.306 41C140.206 41 139.126 39.92 139.126 37.844C139.126 35.78 140.206 34.676 142.306 34.676H144.742V35.996H142.534C141.466 35.996 141.01 36.176 140.974 37.184H144.742V38.504H140.974C141.01 39.548 141.442 39.68 142.522 39.68H144.742V41H142.306ZM152.664 34.676H155.472C156.792 34.676 157.248 35.096 157.248 36.272V37.328H155.652V36.512C155.652 35.948 155.46 35.888 154.92 35.888H154.332V41H152.664V34.676Z" fill="black"/>
</svg>
