<svg width="512" height="512" viewBox="0 0 512 512" fill="none" xmlns="http://www.w3.org/2000/svg">
<rect x="0.5" y="0.5" width="511" height="511" stroke="black"/>
<path d="M256 75.025C275.938 75.025 296.763 86.988 295.755 113.572C294.748 140.156 275.052 149.904 275.052 149.904L316.258 152.562C316.258 152.562 350.374 118.889 327.778 72.81C305.181 26.73 264.06 25.844 256 25.844C247.94 25.844 206.819 26.73 184.222 72.81C161.626 118.889 195.742 152.562 195.742 152.562L236.948 149.904C236.948 149.904 217.252 140.156 216.245 113.572C215.237 86.988 236.062 75.025 256 75.025Z" fill="#E03C31" stroke="black" stroke-width="3" stroke-miterlimit="10" stroke-linecap="round" stroke-linejoin="round"/>
<path d="M500.4 143.623H11.6L256 486.154L500.4 143.623Z" fill="#E03C31" stroke="black" stroke-width="3" stroke-miterlimit="10" stroke-linecap="round" stroke-linejoin="round"/>
<path d="M331.502 259.168L327.923 246.504L300.148 221.349L270.05 207.725L247.13 202.669L220.986 219.314L191.755 242.062L171.067 246.504L188.943 265.874L220.691 283.922L242.513 295.678L268.648 291.875L297.299 276.278L318.916 264.505L331.502 259.168Z" fill="black"/>
<path d="M256.021 283.49C274.619 283.49 289.695 268.414 289.695 249.816C289.695 231.218 274.619 216.142 256.021 216.142C237.423 216.142 222.347 231.218 222.347 249.816C222.347 268.414 237.423 283.49 256.021 283.49Z" fill="#E03C31" stroke="black" stroke-width="3" stroke-miterlimit="10" stroke-linecap="round" stroke-linejoin="round"/>
<path d="M256.021 262.444C262.995 262.444 268.649 256.79 268.649 249.816C268.649 242.842 262.995 237.188 256.021 237.188C249.047 237.188 243.393 242.842 243.393 249.816C243.393 256.79 249.047 262.444 256.021 262.444Z" fill="black" stroke="black" stroke-width="3" stroke-miterlimit="10" stroke-linecap="round" stroke-linejoin="round"/>
<path d="M198.123 405.038H312.82" stroke="black" stroke-width="3" stroke-miterlimit="10" stroke-linecap="round" stroke-linejoin="round"/>
<path d="M95.83 143.623V167.627H54.181L83.646 203.516L65.605 219.314" stroke="black" stroke-width="3" stroke-miterlimit="10" stroke-linecap="round" stroke-linejoin="round"/>
<path d="M416.212 143.623V167.627H457.86L428.396 203.516L446.436 219.314" stroke="black" stroke-width="3" stroke-miterlimit="10" stroke-linecap="round" stroke-linejoin="round"/>
<path d="M280.39 185.35V143.623H287.922V191.996H224.099V143.623H231.631V185.35H280.39Z" stroke="black" stroke-width="3" stroke-miterlimit="10" stroke-linecap="round" stroke-linejoin="round"/>
<path d="M191.755 143.623V188.008H113.553L144.125 223.507L118.87 248.266L162.069 294.788L139.796 323.294" stroke="black" stroke-width="3" stroke-miterlimit="10" stroke-linecap="round" stroke-linejoin="round"/>
<path d="M255.473 376.313L200.173 322.258H147.891L170.266 294.346L130.611 248.044L156.087 222.125L122.414 188.008" stroke="black" stroke-width="3" stroke-miterlimit="10" stroke-linecap="round" stroke-linejoin="round"/>
<path d="M204.207 326.201H141.871" stroke="black" stroke-width="3" stroke-miterlimit="10" stroke-linecap="round" stroke-linejoin="round"/>
<path d="M319.718 143.623V188.008H397.92L367.348 223.507L392.603 248.266L349.403 294.788L371.677 323.294" stroke="black" stroke-width="3" stroke-miterlimit="10" stroke-linecap="round" stroke-linejoin="round"/>
<path d="M256 405.038V376.313L311.3 322.258H363.581L341.206 294.346L380.86 248.044L355.385 222.125L389.058 188.008" stroke="black" stroke-width="3" stroke-miterlimit="10" stroke-linecap="round" stroke-linejoin="round"/>
<path d="M307.267 326.201H369.601" stroke="black" stroke-width="3" stroke-miterlimit="10" stroke-linecap="round" stroke-linejoin="round"/>
<path d="M349.403 294.788H392.542" stroke="black" stroke-width="3" stroke-miterlimit="10" stroke-linecap="round" stroke-linejoin="round"/>
<path d="M236.726 300.326C236.726 300.326 220.554 300.549 220.554 312.512C220.554 324.475 223.877 343.304 209.256 355.711C194.635 368.116 190.426 373.212 200.838 380.966C211.251 388.72 232.075 375.206 236.727 363.021C241.379 350.837 246.032 315.169 241.158 301.877L236.726 300.326Z" fill="#E03C31" stroke="black" stroke-width="3" stroke-miterlimit="10" stroke-linecap="round" stroke-linejoin="round"/>
<path d="M306.731 343.616C313.599 331.743 321.353 340.645 321.13 346.628C320.909 352.608 317.586 361.027 307.174 360.362C296.762 359.697 292.11 350.615 292.553 338.652C292.996 326.689 312.491 321.372 320.688 323.144C328.884 324.916 339.296 330.898 341.07 343.616C342.841 356.334 340.477 367.759 323.79 379.414C307.102 391.071 285.465 383.181 271.286 365.236C257.108 347.292 262.868 302.32 262.868 302.32L274.608 298.332C274.608 298.332 281.476 301.877 281.476 309.409C281.476 316.941 282.31 348.58 295.518 353.253" fill="#E03C31"/>
<path d="M306.731 343.616C313.599 331.743 321.353 340.645 321.13 346.628C320.909 352.608 317.586 361.027 307.174 360.362C296.762 359.697 292.11 350.615 292.553 338.652C292.996 326.689 312.491 321.372 320.688 323.144C328.884 324.916 339.296 330.898 341.07 343.616C342.841 356.334 340.477 367.759 323.79 379.414C307.102 391.071 285.465 383.181 271.286 365.236C257.108 347.292 262.868 302.32 262.868 302.32L274.608 298.332C274.608 298.332 281.476 301.877 281.476 309.409C281.476 316.941 282.31 348.58 295.518 353.253" stroke="black" stroke-width="3" stroke-miterlimit="10" stroke-linecap="round" stroke-linejoin="round"/>
<path d="M256.021 213.855C262.816 213.855 268.131 214.74 277.878 219.17C287.626 223.601 300.327 232.168 310.075 242.801C319.823 253.435 326.912 251.663 326.912 251.663C326.912 251.663 346.703 251.663 352.314 251.663C357.925 251.663 360.88 247.527 359.7 240.437C358.517 233.348 356.451 228.623 336.069 228.031C315.688 227.441 314.506 219.466 295.601 207.06C276.696 194.654 260.484 195.244 256.02 195.244C251.557 195.244 235.345 194.654 216.44 207.06C197.535 219.466 196.354 227.441 175.973 228.031C155.592 228.623 153.523 233.348 152.342 240.437C151.16 247.526 154.115 251.663 159.727 251.663C165.339 251.663 185.129 251.663 185.129 251.663C185.129 251.663 192.218 253.435 201.965 242.801C211.713 232.168 224.415 223.601 234.162 219.17C243.91 214.74 249.227 213.855 256.021 213.855Z" fill="#E03C31" stroke="black" stroke-width="3" stroke-miterlimit="10" stroke-linecap="round" stroke-linejoin="round"/>
<path d="M256.021 287.109C268.703 287.109 281.423 283.86 297.667 269.682C313.915 255.503 314.21 251.367 330.161 251.367C346.111 251.367 359.994 250.481 359.994 256.389C359.994 262.296 360.584 271.158 353.2 271.158C345.815 271.158 323.072 269.09 319.527 274.407C315.983 279.724 290.304 305.421 256.02 305.421C221.736 305.421 196.06 279.724 192.515 274.407C188.97 269.09 166.225 271.158 158.841 271.158C151.457 271.158 152.047 262.297 152.047 256.389C152.047 250.48 165.93 251.367 181.881 251.367C197.831 251.367 198.127 255.503 214.372 269.682C230.619 283.86 243.34 287.109 256.021 287.109Z" fill="#E03C31" stroke="black" stroke-width="3" stroke-miterlimit="10" stroke-linecap="round" stroke-linejoin="round"/>
<path d="M285.598 340.307C285.598 340.307 271.565 337.114 266.368 356.122" stroke="black" stroke-width="2" stroke-miterlimit="10" stroke-linecap="round" stroke-linejoin="round"/>
<path d="M297.5 375.427C297.5 375.427 278.266 365.524 274.738 357.995C271.212 350.466 272.248 347.607 274.24 343.13" stroke="black" stroke-width="2" stroke-miterlimit="10" stroke-linecap="round" stroke-linejoin="round"/>
<path d="M326.302 334.371C326.302 334.371 336.197 338.946 336.197 347.071C336.197 355.194 334.718 366.418 321.28 373.508" stroke="black" stroke-width="2" stroke-miterlimit="10" stroke-linecap="round" stroke-linejoin="round"/>
<path d="M218.634 341.786C218.634 341.786 222.918 339.188 228.825 343.13C234.732 347.072 239.124 354.674 239.124 354.674" stroke="black" stroke-width="2" stroke-miterlimit="10" stroke-linecap="round" stroke-linejoin="round"/>
<path d="M230.155 356.122C230.155 356.122 224.246 376.311 207.262 377.346" stroke="black" stroke-width="2" stroke-miterlimit="10" stroke-linecap="round" stroke-linejoin="round"/>
<path d="M232.303 345.979C232.303 345.979 231.189 338.875 233.404 332.006C235.619 325.138 232.629 313.353 237.613 310.738" stroke="black" stroke-width="2" stroke-miterlimit="10" stroke-linecap="round" stroke-linejoin="round"/>
<path d="M262.681 303.98C262.681 303.98 269.44 306.337 269.883 314.888C270.325 323.44 269.734 333.336 269.883 336.732C270.031 340.128 263.299 339.967 263.785 346.841" stroke="black" stroke-width="2" stroke-miterlimit="10" stroke-linecap="round" stroke-linejoin="round"/>
<path d="M157.638 243.392C157.638 243.392 160.961 237.853 166.721 241.177C172.481 244.5 178.241 243.171 182.229 243.392C186.216 243.614 189.539 242.284 193.083 239.183C196.628 236.081 202.831 234.752 211.914 225.448C220.997 216.144 238.022 206.424 243.228 211.713" stroke="black" stroke-width="2" stroke-miterlimit="10" stroke-linecap="round" stroke-linejoin="round"/>
<path d="M274.831 207.725C274.831 207.725 293.665 221.46 301.638 228.106C309.612 234.752 311.384 234.974 311.384 234.974" stroke="black" stroke-width="2" stroke-miterlimit="10" stroke-linecap="round" stroke-linejoin="round"/>
<path d="M322.53 236.081C322.53 236.081 326.891 239.625 335.31 239.404C343.728 239.182 345.109 237.874 349.403 239.414" stroke="black" stroke-width="2" stroke-miterlimit="10" stroke-linecap="round" stroke-linejoin="round"/>
<path d="M318.916 242.062C318.916 242.062 321.574 246.271 331.766 246.493C341.956 246.714 351.925 243.613 355.028 244.277" stroke="black" stroke-width="2" stroke-miterlimit="10" stroke-linecap="round" stroke-linejoin="round"/>
<path d="M349.403 257.792C349.403 257.792 341.734 260.005 333.537 259.342C325.34 258.677 318.251 257.348 313.599 266.875" stroke="black" stroke-width="2" stroke-miterlimit="10" stroke-linecap="round" stroke-linejoin="round"/>
<path d="M333.316 266.875C333.316 266.875 322.599 264.216 322.53 263.552" stroke="black" stroke-width="2" stroke-miterlimit="10" stroke-linecap="round" stroke-linejoin="round"/>
<path d="M307.267 272.635C307.267 272.635 289.13 297.447 261.71 297.447C234.29 297.447 213.148 287.699 197.515 269.534" stroke="black" stroke-width="2" stroke-miterlimit="10" stroke-linecap="round" stroke-linejoin="round"/>
<path d="M193.97 260.894C193.97 260.894 188.431 257.57 182.893 256.241" stroke="black" stroke-width="2" stroke-miterlimit="10" stroke-linecap="round" stroke-linejoin="round"/>
<path d="M156.605 260.081C156.605 260.081 175.361 259.785 181.269 261.853C187.177 263.92 193.083 268.943 193.083 268.943" stroke="black" stroke-width="2" stroke-miterlimit="10" stroke-linecap="round" stroke-linejoin="round"/>
<path d="M264.418 224.561C264.418 224.561 282.142 233.423 280.812 249.816C279.483 266.21 266.855 280.167 247.138 275.293" stroke="black" stroke-width="2" stroke-miterlimit="10" stroke-linecap="round" stroke-linejoin="round"/>
<path d="M259.397 273.374C259.397 273.374 260.943 267.467 262.68 267.467C264.417 267.467 260.797 271.602 264.011 271.159" stroke="black" stroke-width="2" stroke-miterlimit="10" stroke-linecap="round" stroke-linejoin="round"/>
<path d="M226.979 256.241C226.979 256.241 227.2 249.152 229.859 248.709C232.517 248.266 240.492 271.305 244.481 271.748" stroke="black" stroke-width="2" stroke-miterlimit="10" stroke-linecap="round" stroke-linejoin="round"/>
<path d="M259.766 383.246C259.766 383.246 272.214 389.162 272.415 396.029" stroke="black" stroke-width="2" stroke-miterlimit="10" stroke-linecap="round" stroke-linejoin="round"/>
<path d="M273.723 411.537C273.723 411.537 274.609 416.189 277.932 417.519C281.255 418.847 287.237 430.588 287.237 430.588" stroke="black" stroke-width="2" stroke-miterlimit="10" stroke-linecap="round" stroke-linejoin="round"/>
<path d="M294.325 302.32C294.325 302.32 307.617 316.72 311.384 316.72" stroke="black" stroke-width="2" stroke-miterlimit="10" stroke-linecap="round" stroke-linejoin="round"/>
<path d="M370.974 278.372L382.719 289.472" stroke="black" stroke-width="2" stroke-miterlimit="10" stroke-linecap="round" stroke-linejoin="round"/>
<path d="M386.484 262.444L401.105 273.374" stroke="black" stroke-width="2" stroke-miterlimit="10" stroke-linecap="round" stroke-linejoin="round"/>
<path d="M294.325 172.207C294.325 172.207 340.773 221.936 344.614 223.508" stroke="black" stroke-width="2" stroke-miterlimit="10" stroke-linecap="round" stroke-linejoin="round"/>
<path d="M291.742 195.241L302.854 205.88" stroke="black" stroke-width="2" stroke-miterlimit="10" stroke-linecap="round" stroke-linejoin="round"/>
<path d="M245.662 147.984C245.662 147.984 266.191 162.458 274.831 174.864" stroke="black" stroke-width="2" stroke-miterlimit="10" stroke-linecap="round" stroke-linejoin="round"/>
<path d="M268.648 147.984L274.831 156.55" stroke="black" stroke-width="2" stroke-miterlimit="10" stroke-linecap="round" stroke-linejoin="round"/>
<path d="M186.586 152.562C186.586 152.562 171.816 152.416 167.091 154.78C162.365 157.142 159.412 160.096 159.412 160.096L179.202 181.467" stroke="black" stroke-width="2" stroke-miterlimit="10" stroke-linecap="round" stroke-linejoin="round"/>
<path d="M188.432 195.241C188.432 195.241 200.765 204.253 203.719 207.725" stroke="black" stroke-width="2" stroke-miterlimit="10" stroke-linecap="round" stroke-linejoin="round"/>
<path d="M235.729 227.884C235.729 227.884 244.037 220.573 242.265 229.656C240.492 238.739 234.289 240.302 234.289 244.284" stroke="black" stroke-width="2" stroke-miterlimit="10" stroke-linecap="round" stroke-linejoin="round"/>
<path d="M261.704 222.567C261.704 222.567 247.36 218.463 247.138 223.507C246.917 228.549 250.85 230.099 254.422 230.099C257.994 230.099 260.248 231.871 260.248 231.871" stroke="black" stroke-width="2" stroke-miterlimit="10" stroke-linecap="round" stroke-linejoin="round"/>
<path d="M101.59 150.125C101.59 150.125 115.325 152.784 118.87 160.537C122.414 168.291 131.941 180.254 131.941 180.254" stroke="black" stroke-width="2" stroke-miterlimit="10" stroke-linecap="round" stroke-linejoin="round"/>
<path d="M227.865 68.379C227.865 68.379 218.117 74.804 215.459 77.24" stroke="black" stroke-width="2" stroke-miterlimit="10" stroke-linecap="round" stroke-linejoin="round"/>
<path d="M206.155 88.095C206.155 88.095 197.958 99.837 197.072 112.686C196.186 125.535 207.484 138.605 207.484 138.605" stroke="black" stroke-width="2" stroke-miterlimit="10" stroke-linecap="round" stroke-linejoin="round"/>
<path d="M217.453 139.935C217.453 139.935 209.256 128.637 209.256 125.978C209.256 123.319 206.376 130.409 206.376 130.409" stroke="black" stroke-width="2" stroke-miterlimit="10" stroke-linecap="round" stroke-linejoin="round"/>
<path d="M298.534 48.884C298.534 48.884 326.005 71.259 326.227 94.742C326.448 118.225 317.365 138.606 317.365 138.606" stroke="black" stroke-width="2" stroke-miterlimit="10" stroke-linecap="round" stroke-linejoin="round"/>
<path d="M266.854 67.271C266.854 67.271 293.439 77.019 298.534 91.197C303.631 105.375 308.503 124.649 296.541 138.606" stroke="black" stroke-width="2" stroke-miterlimit="10" stroke-linecap="round" stroke-linejoin="round"/>
<path d="M323.21 120.289C323.21 120.289 318.694 127.086 313.377 126.421C308.061 125.756 303.96 118.236 303.96 118.236" stroke="black" stroke-width="2" stroke-miterlimit="10" stroke-linecap="round" stroke-linejoin="round"/>
<path d="M318.03 118.236C318.03 118.236 319.506 93.0431 307.986 80.3411C296.465 67.6411 274.905 51.689 253.341 53.167C231.778 54.643 225.427 62.62 221.661 62.324C217.895 62.028 213.169 60.552 204.602 70.5931C196.036 80.637 189.538 97.474 189.538 106.925C189.538 116.378 193.378 120.217 193.378 120.217" stroke="black" stroke-width="2" stroke-miterlimit="10" stroke-linecap="round" stroke-linejoin="round"/>
<path d="M253.815 48.8841L248.32 36.0351C248.32 36.0351 280.209 30.5831 292.332 42.4591" stroke="black" stroke-width="2" stroke-miterlimit="10" stroke-linecap="round" stroke-linejoin="round"/>
<path d="M211.915 46.964C211.915 46.964 226.145 48.993 230.006 53.072" stroke="black" stroke-width="2" stroke-miterlimit="10" stroke-linecap="round" stroke-linejoin="round"/>
</svg>
